<?xml version="1.0" standalone="no"?><!DOCTYPE svg PUBLIC "-//W3C//DTD SVG 1.1//EN" "http://www.w3.org/Graphics/SVG/1.1/DTD/svg11.dtd"><svg t="1692086312305" class="icon" viewBox="0 0 1024 1024" version="1.1" xmlns="http://www.w3.org/2000/svg" p-id="4086" xmlns:xlink="http://www.w3.org/1999/xlink" width="200" height="200"><path d="M656.49118373 564.11424744s35.79139413 0 35.79139414 25.8493402c-0.66280359 25.84934021-35.79139413 25.84934021-35.79139414 25.84934021h-92.79250331v43.08223367c-1.98841078 12.5932683 6.62803595 43.08223369-25.84934021 43.08223369s-23.86092942-31.15176897-25.84934021-43.08223369v-43.08223367H417.2190859s-33.80298335 0-34.46578693-25.84934021c0.66280359-25.84934021 34.46578693-25.84934021 34.46578693-25.8493402H512v-34.46578695H417.2190859s-34.46578693 0-34.46578693-25.84934022 34.46578693-25.84934021 34.46578693-25.84934019H512v-25.84934021l-104.72296802-55.01269839c-15.90728628-15.24448269-15.90728628-34.46578693-5.30242876-45.73344805 10.60485751-13.2560719 27.83775099-16.57008987 45.73344807-1.3256072l90.80409252 65.61755591 86.16446736-65.61755591c12.5932683-10.60485751 33.80298335-10.60485751 46.39625165 1.3256072 12.5932683 13.9188755 12.5932683 35.12859054 0 45.73344805 0 2.65121438-107.3741824 55.0126984-107.3741824 55.01269839v25.84934021h92.79250331s35.79139413-1.98841078 35.79139414 25.84934019-35.79139413 25.84934021-35.79139414 25.84934022h-92.79250331v34.46578695h92.79250331z" p-id="4087"></path><path d="M707.52706053 913.41174203h-344.65786942C258.80902669 913.41174203 173.97016652 828.57288187 173.97016652 724.51271744v-444.07840869C173.97016652 176.37414433 258.80902669 91.53528416 362.86919111 91.53528416h344.65786942c104.06016443 0 188.89902459 84.83886017 188.89902461 188.89902459v444.07840869c0 104.06016443-84.83886017 188.89902459-188.89902461 188.89902459z m-344.65786942-768.85217027C287.97238487 144.55957176 226.99445413 205.5375025 226.99445413 280.43430875v444.07840869c0 74.89680624 60.97793075 135.87473698 135.87473698 135.87473699h344.65786942c74.89680624 0 135.87473698-60.97793075 135.874737-135.87473699v-444.07840869c0-74.89680624-60.97793075-135.87473698-135.874737-135.87473699h-344.65786942z" p-id="4088"></path><path d="M246.87856197 416.30904573H134.20195082c-14.58167909 0-26.51214381-11.93046471-26.5121438-26.5121438s11.93046471-26.51214381 26.5121438-26.51214379h112.67661115c14.58167909 0 26.51214381 11.93046471 26.51214381 26.51214379s-11.93046471 26.51214381-26.51214381 26.5121438zM246.87856197 547.54415755H134.20195082c-14.58167909 0-26.51214381-11.93046471-26.5121438-26.51214379s11.93046471-26.51214381 26.5121438-26.5121438h112.67661115c14.58167909 0 26.51214381 11.93046471 26.51214381 26.5121438s-11.93046471 26.51214381-26.51214381 26.51214379zM246.87856197 678.77926937H134.20195082c-14.58167909 0-26.51214381-11.93046471-26.5121438-26.5121438s11.93046471-26.51214381 26.5121438-26.51214379h112.67661115c14.58167909 0 26.51214381 11.93046471 26.51214381 26.51214379s-11.93046471 26.51214381-26.51214381 26.5121438z" p-id="4089"></path></svg>